<?xml version="1.0" encoding="UTF-8"?>
<svg id="_图层_2" data-name="图层 2" xmlns="http://www.w3.org/2000/svg" viewBox="0 0 218.4 125.57">
  <defs>
    <style>
      .cls-1 {
        stroke-width: 0px;
      }
    </style>
  </defs>
  <g id="_图层_1-2" data-name="图层 1">
    <g>
      <g>
        <path class="cls-1" d="M48,64.18c2.65.13,7.05.34,9.78.47,1.34.06,2.39-.97,2.64-2.32,1.5-8.26,2.27-15.22,2.21-30.59-.01-1.49-2.39-1.66-2.72-.21-2.44,11.02-8.76,23.75-12.96,30.64-.52.86.06,1.96,1.05,2.01Z"/>
        <path class="cls-1" d="M43.84,92.16c1.47-2.79,4.44-7.58,6.35-10.01.53-.68.41-1.54-.05-2.26-3.61-5.69-10.22-16.14-14.59-21.9-.47-.62-.82-2.38-.82-3.16v-4.52c0-1.53,1.23-2.76,2.72-2.76h11.97c.64,0,1.28-.26,1.64-.83l1.51-2.69c.36-.49.02-1.19-.58-1.19h-14.65c-1.44,0-2.61-1.19-2.61-2.65v-16.73c0-.8.47-1.52,1.19-1.83,5.08-2.23,7.5-3.77,9.19-5.22.51-.44,1.16-.63,1.82-.53.49.08,1.06.15,1.65.22,1.21.12,1.83-1.44.88-2.2L35.04.31c-.68-.56-1.67-.34-2.1.43-2.01,3.69-5.14,8.71-11.02,14-3.8,4.04-11.7,9.37-16.11,11.81-.92.5-.47,1.91.56,1.79,4.19-.49,12.99-3.31,14.88-3.86.74-.22,1.48.35,1.48,1.14v14.54c0,1.46-1.17,2.65-2.61,2.65H6.71l-5.35-2.03c-.91-.34-1.72.7-1.19,1.52l2.77,4.23c.4.62,1.08.99,1.81.99h15c1.61,0,2.98,1.43,2.72,3.05-3.15,19.46-13.87,39-21.18,52.02-.52.92.75,1.65,1.57.99,2.76-2.2,13.45-12.43,18.15-18.84.57-.78,1.79-.46,1.8.49.02,9.13-.02,31.02,0,38.62,0,1.07,1.07,1.81,2.06,1.5l9.08-3.33c.55-.17.86-.69.86-1.28v-55.27c0-.43.51-.53.65-.12,2.66,8.19,5.24,22.33,5.98,26.43.22,1.23,1.83,1.47,2.41.37Z"/>
        <path class="cls-1" d="M80.26,65.42c-.11-.83-.13-1.54.49-2.09,5.89-5.22,18.87-17.35,22.82-20.92.72-.64.69-1.79-.08-2.38l-12.67-9.99c-1.48-1.5-3.66.57-2.05,3.14.13,1.34-.07,2.71-.57,3.96l-8.27,20.61c-.55.66-1.39.29-1.49-.32-.4-2.51,1.12-53.45,1.12-53.45-.02-1.21-.98-2.18-2.17-2.18h-13.4c-1.19,0-1.73,1.54-.8,2.3.96.79,1.94,1.57,1.96,2.35.5,16.17,1.06,34.4.45,45.73-.75,12.14-1.21,27.23-6.27,41.98-5.88,17.12-15.12,24.22-19.94,28.94-.97.94.15,2.61,1.4,2.1,9.19-3.85,21.14-14.37,26.3-22.3,5.38-9.06,7.86-17.44,8.39-28.33.05-1.05.82-1.06.96-.02,3.72,27.35,7.33,37.65,16.51,50.16.58.8,1.59.9,2.38.29,4.59-3.59,6.56-5.26,13.56-10.74.58-.46.52-1.41-.05-1.88-11.26-8.94-25.54-24.39-28.58-46.96Z"/>
      </g>
      <g>
        <path class="cls-1" d="M200.64,98.78c-13.16-5.09-23.24-15.1-25.86-18.94-.31-.47-1-.12-.87.43,3.55,15.46,17.65,30.05,23.46,34.68,8.55,6.8,17.71,6.25,19.99,2.35,2.29-3.9,2.41-11.12-16.72-18.52Z"/>
        <path class="cls-1" d="M217.39,70.94h-41.74c-1.96,0-3.54-1.59-3.54-3.55v-8.99c0-.68.55-1.22,1.23-1.22h5.65c.79,0,1.38-.31,1.9-1.14l1.47-2.54c.24-.48-.1-1.05-.62-1.05h-7.88c-.97,0-1.74-.78-1.74-1.75v-13.03c0-1.75,1.42-3.16,3.17-3.16h11.73c.91,0,1.66.74,1.66,1.67v26.63c0,.99,1.06,1.51,1.93,1.16l9.69-3.79c.71-.36,1.13-.93,1.13-1.7V15.14c0-3.39.57-3.96,1.28-3.96h1.4c1.03,0,1.59-1.19.93-1.98l-7.15-8.7c-.49-.59-1.34-.66-1.93-.18l-7.22,6.13h-33.86c-.84,0-1.67-.18-2.43-.53l-2.16-.98c-.66-.31-1.34.4-1.01,1.05l1.73,3.42c.55,1.08,1.7,1.77,2.92,1.77.68,0,2.43-.01,2.9-.01,1.32,0,1.44.96,1.44,1.6v13.83c0,1.75-1.41,3.16-3.17,3.16h-11.92c-.93,0-1.67-.74-1.67-1.66V9.02c0-.62-.35-1.18-.9-1.45l-11.08-5.6c-.86-.44-1.87.19-1.87,1.15v61.93c0,1.05.89,1.68,1.89,1.31l11.05-4.26c.56-.27.9-.82.9-1.45v-2.17c0-.72.58-1.29,1.29-1.29h14.24c.68,0,1.22.55,1.22,1.22v8.99c0,1.96-1.58,3.55-3.54,3.55h-35.46l-5.44-2.03c-.93-.35-1.76.7-1.21,1.52l2.82,4.24c.4.62,1.1.98,1.83.98h29.86c.78,0,1.37.72,1.22,1.49-2.4,12.79-24.25,33.03-34.07,40.5-1.62,1.23-.45,2.7,1.16,1.91,22.48-11.1,36.38-22.16,41.37-28.72.47-.62,1.45-.28,1.45.5v32.07c0,1.59,1.41,2.64,3.1,1.93l8.67-3.29c1.45-.71,2.08-1.9,2.08-3.52v-39.28c0-1.99,1.61-3.6,3.6-3.6h39.1c.65,0,1.32-.27,1.66-.83l1.51-2.69c.37-.49.03-1.2-.59-1.2ZM172.1,12.77c0-.87.71-1.59,1.59-1.59h13.38c.88,0,1.59.72,1.59,1.59v15.34c0,.92-.75,1.66-1.66,1.66h-11.73c-1.75,0-3.17-1.41-3.17-3.16v-13.83ZM158.25,50.69c0,.97-.78,1.75-1.74,1.75h-13.26c-.97,0-1.75-.78-1.75-1.75v-14.53c0-.93.74-1.67,1.67-1.67h11.92c1.75,0,3.17,1.41,3.17,3.16v13.03Z"/>
      </g>
    </g>
  </g>
</svg>